<mxfile host="Electron" modified="2024-03-18T21:06:08.137Z" agent="Mozilla/5.0 (Windows NT 10.0; Win64; x64) AppleWebKit/537.36 (KHTML, like Gecko) draw.io/24.0.4 Chrome/120.0.6099.109 Electron/28.1.0 Safari/537.36" etag="QYrgYJwICnV2Hp9jdzly" version="24.0.4" type="device">
  <diagram name="PÃ¡gina-1" id="U_Yt0VXaDfSb2jAVTKuO">
    <mxGraphModel dx="712" dy="827" grid="1" gridSize="10" guides="1" tooltips="1" connect="1" arrows="1" fold="1" page="1" pageScale="1" pageWidth="827" pageHeight="1169" math="0" shadow="0">
      <root>
        <mxCell id="0" />
        <mxCell id="1" parent="0" />
        <mxCell id="Y9HCrXDy9_LVj4miwKp8-9" value="" style="edgeStyle=orthogonalEdgeStyle;rounded=0;orthogonalLoop=1;jettySize=auto;html=1;entryX=0;entryY=0.5;entryDx=0;entryDy=0;" edge="1" parent="1" source="Y9HCrXDy9_LVj4miwKp8-1" target="Y9HCrXDy9_LVj4miwKp8-3">
          <mxGeometry relative="1" as="geometry" />
        </mxCell>
        <mxCell id="Y9HCrXDy9_LVj4miwKp8-17" style="edgeStyle=orthogonalEdgeStyle;rounded=0;orthogonalLoop=1;jettySize=auto;html=1;" edge="1" parent="1">
          <mxGeometry relative="1" as="geometry">
            <mxPoint x="150" y="385" as="sourcePoint" />
            <mxPoint x="490" y="360" as="targetPoint" />
            <Array as="points">
              <mxPoint x="490" y="385" />
            </Array>
          </mxGeometry>
        </mxCell>
        <mxCell id="Y9HCrXDy9_LVj4miwKp8-18" style="edgeStyle=orthogonalEdgeStyle;rounded=0;orthogonalLoop=1;jettySize=auto;html=1;entryX=0.5;entryY=1;entryDx=0;entryDy=0;" edge="1" parent="1" source="Y9HCrXDy9_LVj4miwKp8-1" target="Y9HCrXDy9_LVj4miwKp8-13">
          <mxGeometry relative="1" as="geometry">
            <Array as="points">
              <mxPoint x="620" y="390" />
            </Array>
          </mxGeometry>
        </mxCell>
        <mxCell id="Y9HCrXDy9_LVj4miwKp8-24" style="edgeStyle=orthogonalEdgeStyle;rounded=0;orthogonalLoop=1;jettySize=auto;html=1;exitX=0.5;exitY=0.5;exitDx=0;exitDy=0;exitPerimeter=0;entryX=0;entryY=0.5;entryDx=0;entryDy=0;" edge="1" parent="1" source="Y9HCrXDy9_LVj4miwKp8-1" target="Y9HCrXDy9_LVj4miwKp8-22">
          <mxGeometry relative="1" as="geometry">
            <Array as="points">
              <mxPoint x="230" y="365" />
              <mxPoint x="230" y="520" />
            </Array>
          </mxGeometry>
        </mxCell>
        <mxCell id="Y9HCrXDy9_LVj4miwKp8-27" style="edgeStyle=orthogonalEdgeStyle;rounded=0;orthogonalLoop=1;jettySize=auto;html=1;exitX=0.5;exitY=0.5;exitDx=0;exitDy=0;exitPerimeter=0;" edge="1" parent="1" source="Y9HCrXDy9_LVj4miwKp8-1" target="Y9HCrXDy9_LVj4miwKp8-25">
          <mxGeometry relative="1" as="geometry">
            <Array as="points">
              <mxPoint x="110" y="460" />
            </Array>
          </mxGeometry>
        </mxCell>
        <mxCell id="Y9HCrXDy9_LVj4miwKp8-30" style="edgeStyle=orthogonalEdgeStyle;rounded=0;orthogonalLoop=1;jettySize=auto;html=1;exitX=0.5;exitY=0.5;exitDx=0;exitDy=0;exitPerimeter=0;" edge="1" parent="1" source="Y9HCrXDy9_LVj4miwKp8-1" target="Y9HCrXDy9_LVj4miwKp8-29">
          <mxGeometry relative="1" as="geometry">
            <Array as="points">
              <mxPoint x="110" y="560" />
            </Array>
          </mxGeometry>
        </mxCell>
        <mxCell id="Y9HCrXDy9_LVj4miwKp8-35" style="edgeStyle=orthogonalEdgeStyle;rounded=0;orthogonalLoop=1;jettySize=auto;html=1;exitX=0.5;exitY=0.5;exitDx=0;exitDy=0;exitPerimeter=0;entryX=0;entryY=0.5;entryDx=0;entryDy=0;" edge="1" parent="1" source="Y9HCrXDy9_LVj4miwKp8-1" target="Y9HCrXDy9_LVj4miwKp8-33">
          <mxGeometry relative="1" as="geometry">
            <Array as="points">
              <mxPoint x="110" y="625" />
            </Array>
          </mxGeometry>
        </mxCell>
        <mxCell id="Y9HCrXDy9_LVj4miwKp8-1" value="photoExpress administrator" style="shape=umlActor;verticalLabelPosition=bottom;verticalAlign=top;html=1;outlineConnect=0;" vertex="1" parent="1">
          <mxGeometry x="80" y="320" width="60" height="90" as="geometry" />
        </mxCell>
        <mxCell id="Y9HCrXDy9_LVj4miwKp8-2" value="PhotoExpress System" style="swimlane;whiteSpace=wrap;html=1;" vertex="1" parent="1">
          <mxGeometry x="270" y="170" width="400" height="535" as="geometry" />
        </mxCell>
        <mxCell id="Y9HCrXDy9_LVj4miwKp8-3" value="Create a new event" style="ellipse;whiteSpace=wrap;html=1;aspect=fixed;fillColor=#121659;" vertex="1" parent="Y9HCrXDy9_LVj4miwKp8-2">
          <mxGeometry x="190" y="30" width="60" height="60" as="geometry" />
        </mxCell>
        <mxCell id="Y9HCrXDy9_LVj4miwKp8-4" value="Edit an existing event" style="ellipse;whiteSpace=wrap;html=1;aspect=fixed;fillColor=#121659;" vertex="1" parent="Y9HCrXDy9_LVj4miwKp8-2">
          <mxGeometry x="220" y="130" width="60" height="60" as="geometry" />
        </mxCell>
        <mxCell id="Y9HCrXDy9_LVj4miwKp8-12" value="&amp;lt;&amp;lt;includes&amp;gt;&amp;gt;" style="endArrow=open;endSize=12;dashed=1;html=1;rounded=0;entryX=0.5;entryY=0;entryDx=0;entryDy=0;exitX=0.5;exitY=1;exitDx=0;exitDy=0;" edge="1" parent="Y9HCrXDy9_LVj4miwKp8-2" source="Y9HCrXDy9_LVj4miwKp8-3" target="Y9HCrXDy9_LVj4miwKp8-4">
          <mxGeometry width="160" relative="1" as="geometry">
            <mxPoint x="20" y="200" as="sourcePoint" />
            <mxPoint x="180" y="200" as="targetPoint" />
            <Array as="points">
              <mxPoint x="250" y="95" />
            </Array>
          </mxGeometry>
        </mxCell>
        <mxCell id="Y9HCrXDy9_LVj4miwKp8-13" value="Delete an existing event" style="ellipse;whiteSpace=wrap;html=1;aspect=fixed;fillColor=#121659;" vertex="1" parent="Y9HCrXDy9_LVj4miwKp8-2">
          <mxGeometry x="320" y="55" width="60" height="60" as="geometry" />
        </mxCell>
        <mxCell id="Y9HCrXDy9_LVj4miwKp8-14" value="&amp;lt;&amp;lt;includes&amp;gt;&amp;gt;" style="endArrow=open;endSize=12;dashed=1;html=1;rounded=0;entryX=0.5;entryY=0;entryDx=0;entryDy=0;exitX=1;exitY=0.5;exitDx=0;exitDy=0;" edge="1" parent="Y9HCrXDy9_LVj4miwKp8-2" source="Y9HCrXDy9_LVj4miwKp8-3" target="Y9HCrXDy9_LVj4miwKp8-13">
          <mxGeometry width="160" relative="1" as="geometry">
            <mxPoint x="90" y="100" as="sourcePoint" />
            <mxPoint x="90" y="140" as="targetPoint" />
            <Array as="points" />
          </mxGeometry>
        </mxCell>
        <mxCell id="Y9HCrXDy9_LVj4miwKp8-19" value="create the modification log" style="ellipse;whiteSpace=wrap;html=1;aspect=fixed;fillColor=#121659;" vertex="1" parent="Y9HCrXDy9_LVj4miwKp8-2">
          <mxGeometry x="300" y="237.5" width="60" height="60" as="geometry" />
        </mxCell>
        <mxCell id="Y9HCrXDy9_LVj4miwKp8-21" value="&amp;lt;&amp;lt;includes&amp;gt;&amp;gt;" style="endArrow=open;endSize=12;dashed=1;html=1;rounded=0;entryX=0.5;entryY=0;entryDx=0;entryDy=0;exitX=1;exitY=0.5;exitDx=0;exitDy=0;" edge="1" parent="Y9HCrXDy9_LVj4miwKp8-2" source="Y9HCrXDy9_LVj4miwKp8-4" target="Y9HCrXDy9_LVj4miwKp8-19">
          <mxGeometry width="160" relative="1" as="geometry">
            <mxPoint x="90" y="100" as="sourcePoint" />
            <mxPoint x="90" y="140" as="targetPoint" />
            <Array as="points">
              <mxPoint x="330" y="160" />
            </Array>
          </mxGeometry>
        </mxCell>
        <mxCell id="Y9HCrXDy9_LVj4miwKp8-22" value="Simulate the service cost" style="ellipse;whiteSpace=wrap;html=1;aspect=fixed;fillColor=#121659;" vertex="1" parent="Y9HCrXDy9_LVj4miwKp8-2">
          <mxGeometry x="50" y="315" width="60" height="60" as="geometry" />
        </mxCell>
        <mxCell id="Y9HCrXDy9_LVj4miwKp8-25" value="Create a new institution" style="ellipse;whiteSpace=wrap;html=1;aspect=fixed;fillColor=#121659;" vertex="1" parent="Y9HCrXDy9_LVj4miwKp8-2">
          <mxGeometry x="144" y="255" width="60" height="60" as="geometry" />
        </mxCell>
        <mxCell id="Y9HCrXDy9_LVj4miwKp8-26" value="&amp;lt;&amp;lt;Extends&amp;gt;&amp;gt;" style="endArrow=open;endSize=12;dashed=1;html=1;rounded=0;entryX=0.5;entryY=0;entryDx=0;entryDy=0;exitX=0;exitY=1;exitDx=0;exitDy=0;" edge="1" parent="Y9HCrXDy9_LVj4miwKp8-2" source="Y9HCrXDy9_LVj4miwKp8-3" target="Y9HCrXDy9_LVj4miwKp8-25">
          <mxGeometry width="160" relative="1" as="geometry">
            <mxPoint x="178.78679656440363" y="81.21320343559637" as="sourcePoint" />
            <mxPoint x="130" y="315" as="targetPoint" />
            <Array as="points">
              <mxPoint x="170" y="81" />
            </Array>
          </mxGeometry>
        </mxCell>
        <mxCell id="Y9HCrXDy9_LVj4miwKp8-29" value="Observe the Modification Log" style="ellipse;whiteSpace=wrap;html=1;aspect=fixed;fillColor=#121659;" vertex="1" parent="Y9HCrXDy9_LVj4miwKp8-2">
          <mxGeometry x="260" y="350" width="60" height="60" as="geometry" />
        </mxCell>
        <mxCell id="Y9HCrXDy9_LVj4miwKp8-31" value="&amp;lt;&amp;lt;includes&amp;gt;&amp;gt;" style="endArrow=open;endSize=12;dashed=1;html=1;rounded=0;entryX=0.5;entryY=0;entryDx=0;entryDy=0;exitX=0.5;exitY=1;exitDx=0;exitDy=0;" edge="1" parent="Y9HCrXDy9_LVj4miwKp8-2" source="Y9HCrXDy9_LVj4miwKp8-19" target="Y9HCrXDy9_LVj4miwKp8-29">
          <mxGeometry x="0.4565" width="160" relative="1" as="geometry">
            <mxPoint x="290" y="170" as="sourcePoint" />
            <mxPoint x="340" y="248" as="targetPoint" />
            <Array as="points">
              <mxPoint x="290" y="298" />
            </Array>
            <mxPoint as="offset" />
          </mxGeometry>
        </mxCell>
        <mxCell id="Y9HCrXDy9_LVj4miwKp8-33" value="Observe the Modification details" style="ellipse;whiteSpace=wrap;html=1;aspect=fixed;fillColor=#121659;" vertex="1" parent="Y9HCrXDy9_LVj4miwKp8-2">
          <mxGeometry x="144" y="425" width="60" height="60" as="geometry" />
        </mxCell>
        <mxCell id="Y9HCrXDy9_LVj4miwKp8-34" value="&amp;lt;&amp;lt;includes&amp;gt;&amp;gt;" style="endArrow=open;endSize=12;dashed=1;html=1;rounded=0;entryX=1;entryY=0.5;entryDx=0;entryDy=0;exitX=0.5;exitY=1;exitDx=0;exitDy=0;" edge="1" parent="Y9HCrXDy9_LVj4miwKp8-2" source="Y9HCrXDy9_LVj4miwKp8-29" target="Y9HCrXDy9_LVj4miwKp8-33">
          <mxGeometry x="0.4504" y="-25" width="160" relative="1" as="geometry">
            <mxPoint x="340" y="308" as="sourcePoint" />
            <mxPoint x="300" y="360" as="targetPoint" />
            <Array as="points">
              <mxPoint x="290" y="455" />
            </Array>
            <mxPoint as="offset" />
          </mxGeometry>
        </mxCell>
      </root>
    </mxGraphModel>
  </diagram>
</mxfile>
